<?xml version="1.0" encoding="UTF-8"?>
<svg id="Wordmark_White_" data-name="Wordmark (White)" xmlns="http://www.w3.org/2000/svg" viewBox="0 0 1080 1080">
  <defs>
    <style>
      .cls-1 {
        fill: #fff;
      }
    </style>
  </defs>
  <path class="cls-1" d="m317.83,529.18c12.64-12.73,24.19-7.92,32.58-9.38v15.32h-12.78c-10.55,0-19.09,8.55-19.09,19.09v16.27h-18.68v-46.71c0-22.34,18.11-40.45,40.45-40.45h17.08v16.06h-18.43c-11.28,0-21.04,4.64-21.04,15.92"/>
  <path class="cls-1" d="m354.15,538.48c0-19.67,13.32-32.75,33.74-32.75s33.74,13.07,33.74,32.75-13.32,32.75-33.74,32.75-33.74-13.07-33.74-32.75Zm49.68,0c0-10.83-6.1-18.43-15.94-18.43s-15.81,7.6-15.81,18.43,5.98,18.43,15.81,18.43,15.94-7.6,15.94-18.43Z"/>
  <path class="cls-1" d="m439.44,549.19c.62,5.6,5.48,9.46,14.07,9.46,7.35,0,11.83-2.37,11.83-6.85,0-5.23-4.36-5.6-14.69-6.97-14.94-1.74-26.52-5.1-26.52-18.3s11.08-21.04,27.52-20.92c17.18,0,29.01,7.6,29.88,20.67h-16.81c-.5-5.1-5.35-8.22-12.45-8.22s-11.33,2.49-11.33,6.6c0,4.86,5.48,5.35,14.69,6.47,14.69,1.49,26.9,4.86,26.9,19.3,0,12.7-11.95,20.79-29.14,20.79s-29.88-8.34-30.63-22.04h16.68Z"/>
  <path class="cls-1" d="m499.09,549.19c.62,5.6,5.48,9.46,14.07,9.46,7.35,0,11.83-2.37,11.83-6.85,0-5.23-4.36-5.6-14.69-6.97-14.94-1.74-26.52-5.1-26.52-18.3s11.08-21.04,27.52-20.92c17.18,0,29.01,7.6,29.88,20.67h-16.81c-.5-5.1-5.35-8.22-12.45-8.22s-11.33,2.49-11.33,6.6c0,4.86,5.48,5.35,14.69,6.47,14.69,1.49,26.9,4.86,26.9,19.3,0,12.7-11.95,20.79-29.14,20.79s-29.88-8.34-30.63-22.04h16.68Z"/>
  <path class="cls-1" d="m609.28,555.66v14.82h-8.97c-9.09,0-11.95-4.36-11.83-10.46-4.48,7.1-10.96,11.21-20.92,11.21-13.82,0-23.78-6.6-23.78-18.8,0-13.57,10.21-21.29,29.39-21.29h9.59c1.72,0,3.11-1.39,3.11-3.11h0c0-5.73-4.11-9.46-11.46-9.46-6.85,0-11.46,3.11-12.2,7.84h-16.93c1.25-12.45,12.7-20.67,29.63-20.67,17.93,0,28.26,7.97,28.26,23.28v22.66c0,3.36,1.37,3.98,4.11,3.98h1.99Zm-23.41-12.83h-12.83c-7.35,0-11.58,2.99-11.58,8.34,0,4.48,3.61,7.35,9.46,7.35,9.21,0,14.82-5.73,14.94-14.44v-1.25Z"/>
  <g>
    <path class="cls-1" d="m621.88,507.09c3.74-14.43,16.87-24.43,31.78-24.22l4.48.06c15.55.23,23.03,10.92,18.77,27.37s-17.26,26.97-32.81,26.75h0c-11.87-.17-22.31,7.79-25.3,19.28l-3.69,14.21-9.66-.14,16.43-63.31Zm2.75,26.51c8.15-6.29,17.19-6.43,21.18-6.6,2.07.03,6.3-.17,10.71-2.64,5.05-2.82,8.83-7.78,10.49-14.2,2.7-10.42-2.04-17.04-12.26-17.19-11.41-.17-21.46,7.49-24.32,18.54"/>
    <path class="cls-1" d="m717.65,562.57l-2.44,9.42-5-.07c-7.55-.11-9.16-3.79-7.65-10.07-5.05,5.73-11.99,10.54-21.76,10.4-12.44-.18-19.06-7.33-16.03-19.01,3.32-12.81,13.07-19.85,27.95-19.63l12.12.18c2.66.04,5.01-1.75,5.68-4.33h0c2.15-8.29-1.77-13.39-10.65-13.51-8-.12-14.44,4.08-17.24,10.59l-9.11-.13c4.59-12.54,15.51-19.82,29.17-19.62,14.44.21,20.65,8.49,16.78,23.43l-7.27,28c-.88,3.39,0,4.28,2.56,4.32l2.89.04Zm-10.51-20.07l-17.55-.25c-8.11-.12-13.54,3.21-15.43,10.49-1.63,6.28,2.04,10.62,9.59,10.73,11.33.16,19.81-7.15,22.58-17.82l.81-3.14Z"/>
    <path class="cls-1" d="m726.49,507.88l9.66.14,4.18,51.36,30.15-50.86,9.66.14-45.52,74.46c-6.23,10.24-9.38,14.23-17.38,14.12l-10.89-.16,2.44-9.42,8.11.12c5.22.08,6.5-1.42,10.17-7.41l4.8-7.75-5.39-64.73Z"/>
  </g>
</svg>