<svg width="154" height="42" viewBox="0 0 154 42" fill="none" xmlns="http://www.w3.org/2000/svg">
<path d="M53.7748 20.5885C56.4917 17.8522 58.9744 18.8862 60.7778 18.5723V21.8654H58.0308C55.763 21.8654 53.9274 23.7032 53.9274 25.9687V29.466H49.9121V19.4257C49.9121 14.6237 53.8049 10.731 58.6068 10.731H62.2782V14.183H58.3166C55.892 14.183 53.7941 15.1804 53.7941 17.6051" fill="#037DF6"/>
<path d="M61.582 22.5855C61.582 18.3574 64.4452 15.5459 68.8344 15.5459C73.2237 15.5459 76.0868 18.3553 76.0868 22.5855C76.0868 26.8157 73.2237 29.6251 68.8344 29.6251C64.4452 29.6251 61.582 26.8157 61.582 22.5855ZM72.2607 22.5855C72.2607 20.2576 70.9495 18.624 68.8344 18.624C66.7193 18.624 65.4361 20.2576 65.4361 22.5855C65.4361 24.9134 66.7215 26.547 68.8344 26.547C70.9474 26.547 72.2607 24.9134 72.2607 22.5855Z" fill="#037DF6"/>
<path d="M79.9174 24.8878C80.0507 26.0915 81.0953 26.9212 82.9417 26.9212C84.5216 26.9212 85.4846 26.4118 85.4846 25.4488C85.4846 24.3246 84.5474 24.2451 82.327 23.9506C79.1156 23.5766 76.6265 22.8544 76.6265 20.0171C76.6265 17.1797 79.0082 15.4945 82.5419 15.5203C86.2348 15.5203 88.7776 17.1539 88.9646 19.9633H85.3513C85.2438 18.8671 84.2013 18.1964 82.6752 18.1964C81.1491 18.1964 80.2398 18.7317 80.2398 19.6151C80.2398 20.6598 81.4177 20.7651 83.3974 21.0058C86.555 21.3261 89.1796 22.0505 89.1796 25.1544C89.1796 27.8842 86.6109 29.6232 82.9159 29.6232C79.221 29.6232 76.4932 27.8305 76.332 24.8857H79.9174V24.8878Z" fill="#037DF6"/>
<path d="M92.7358 24.8878C92.869 26.0915 93.9137 26.9212 95.7601 26.9212C97.34 26.9212 98.303 26.4118 98.303 25.4488C98.303 24.3246 97.3658 24.2451 95.1453 23.9506C91.934 23.5766 89.4449 22.8544 89.4449 20.0171C89.4449 17.1797 91.8265 15.4945 95.3603 15.5203C99.0531 15.5203 101.596 17.1539 101.783 19.9633H98.1697C98.0622 18.8671 97.0197 18.1964 95.4936 18.1964C93.9674 18.1964 93.0582 18.7317 93.0582 19.6151C93.0582 20.6598 94.2361 20.7651 96.2158 21.0058C99.3734 21.3261 101.998 22.0505 101.998 25.1544C101.998 27.8842 99.4293 29.6232 95.7343 29.6232C92.0393 29.6232 89.3116 27.8305 89.1504 24.8857H92.7358V24.8878Z" fill="#037DF6"/>
<path d="M116.425 26.2801V29.4656H114.497C112.543 29.4656 111.928 28.5285 111.954 27.2173C110.991 28.7434 109.598 29.6269 107.457 29.6269C104.487 29.6269 102.346 28.2082 102.346 25.5858C102.346 22.6689 104.54 21.0095 108.663 21.0095H110.724C111.094 21.0095 111.393 20.7108 111.393 20.341C111.393 19.1094 110.509 18.3076 108.93 18.3076C107.457 18.3076 106.466 18.9761 106.307 19.9928H102.668C102.937 17.3167 105.398 15.5498 109.037 15.5498C112.891 15.5498 115.112 17.263 115.112 20.5538V25.4246C115.112 26.1468 115.406 26.2801 115.995 26.2801H116.423H116.425ZM111.393 23.5223H108.635C107.055 23.5223 106.146 24.165 106.146 25.315C106.146 26.2779 106.922 26.8949 108.179 26.8949C110.159 26.8949 111.365 25.6632 111.391 23.791V23.5223H111.393Z" fill="#037DF6"/>
<path d="M40.9978 20.9989C40.9978 32.0452 32.043 41 20.9968 41C19.3847 41 17.8177 40.8087 16.3152 40.4497C13.912 39.8049 11.5712 37.6145 11.6228 35.0373C11.683 31.8517 16.0637 28.8016 20.6163 29.1885C25.04 29.5647 28.4684 29.6249 30.4632 28.9693C31.9549 28.477 32.3225 27.5979 32.4342 26.5102C32.4772 26.0653 32.2472 25.3431 32.0108 24.8336C32.3762 24.7025 32.7309 24.5392 33.0555 24.3457C33.782 23.9136 34.2506 23.3204 34.5472 22.6777C35.1878 21.2848 35.0179 19.6856 34.889 19.1332C34.7063 18.3249 32.5052 18.1444 30.3385 17.2244C28.1739 16.3087 23.6622 12.1494 20.4293 11.9388C18.7183 11.8292 17.3641 12.014 16.2077 12.3988C16.1153 12.2655 16.0164 12.1451 15.9132 12.0527C14.9244 11.1327 11.8055 9.92256 10.0064 13.5208C9.49266 14.5461 9.48407 15.6553 9.73341 16.7128C6.81654 18.7677 3.03987 19.9027 1 20.4057C1.31598 9.63668 10.1461 1 20.9946 1C31.8431 1 40.9957 9.95481 40.9957 21.0032L40.9978 20.9989Z" fill="#037DF6" stroke="#037DF6" stroke-width="1.21232" stroke-miterlimit="10"/>
<path d="M24.3204 20.3543C23.639 20.4016 23.0415 19.9631 22.6008 19.4773C22.3171 19.1549 21.9065 18.5423 22.2806 18.1188C22.5901 17.8416 23.0415 17.7986 23.4176 17.7212C24.2946 17.5944 25.1544 17.6116 26.0314 17.8136C26.4742 17.9275 26.9407 18.0802 27.3813 18.4434C27.9789 18.9142 28.1465 19.7267 27.6586 20.3543C27.3813 20.7369 27.0245 21.0035 26.7042 21.3044C25.6617 22.0825 26.6161 23.7957 27.5404 24.2256C28.8559 24.7995 30.4508 24.677 31.805 24.26L32.2134 25.4013C30.253 26.1193 27.2523 26.3235 25.7864 24.5007C24.9051 23.4496 24.4623 21.6612 25.5671 20.5736C25.853 20.2726 26.3668 19.9072 26.6118 19.5977C26.6419 19.5633 26.6591 19.5246 26.6741 19.5053C26.672 19.5053 26.6698 19.5096 26.672 19.5139C26.6784 19.5182 26.672 19.5268 26.6763 19.5332C26.0959 18.7164 23.8368 18.7143 22.8609 18.8024C22.8502 18.8024 22.8437 18.8024 22.8416 18.8024C22.8652 18.7809 22.8738 18.7787 22.9104 18.7422C22.9448 18.7057 22.9748 18.6541 22.9877 18.6089C22.992 18.5788 22.9963 18.5487 22.9877 18.5487C22.9834 18.7143 23.0694 18.8927 23.1619 19.0754C23.4456 19.6041 23.8626 19.9094 24.3183 20.3543H24.3204Z" fill="#037DF6"/>
<path d="M10.3176 16.5708C10.6335 17.925 11.4589 19.0449 12.1575 20.2292C12.3918 20.6269 12.6304 21.074 12.6089 21.706C11.4826 21.5834 10.87 20.571 10.3176 19.7091C9.82103 18.8127 9.37824 17.8584 9.15039 16.8502L10.3176 16.573V16.5708Z" fill="#037DF6"/>
<path d="M16.706 12.061C17.2433 12.9187 17.6775 13.9354 17.77 14.9435C17.7979 15.2638 17.7592 15.655 17.3766 16.0118C16.577 15.5927 16.5662 15.0209 16.3341 14.3331C16.2008 13.7763 16.0095 13.2132 15.7129 12.7317L16.7081 12.061H16.706Z" fill="#037DF6"/>
<path d="M31.3322 21.2979C31.373 22.3898 32.177 22.3382 32.9873 22.0932C33.6429 21.9298 34.4511 21.8266 35.0358 22.2737L34.2319 23.183L34.2641 23.2088L34.2727 23.2152C33.5075 22.8971 32.523 23.2646 31.7557 22.8218C31.1731 22.4994 31.0334 21.8546 31.3322 21.2979Z" fill="#037DF6"/>
<path d="M119.129 15.8401C119.933 12.7384 122.755 10.5889 125.96 10.634L126.923 10.6469C130.266 10.6963 131.874 12.9942 130.958 16.5301C130.042 20.066 127.248 22.3273 123.905 22.28C121.354 22.2434 119.11 23.9544 118.467 26.4242L117.674 29.4786L115.598 29.4486L119.129 15.8401ZM119.72 21.5384C121.472 20.1864 123.415 20.1563 124.273 20.1197C124.718 20.1262 125.627 20.0832 126.575 19.5523C127.661 18.9461 128.473 17.88 128.83 16.5C129.41 14.2602 128.391 12.8372 126.195 12.805C123.742 12.7685 121.582 14.415 120.967 16.7902" fill="#037DF6"/>
<path d="M139.715 27.7657L139.19 29.7905L138.115 29.7754C136.493 29.7518 136.146 28.9608 136.471 27.6109C135.386 28.8426 133.894 29.8765 131.794 29.8464C129.12 29.8077 127.697 28.2708 128.348 25.7602C129.062 23.0067 131.158 21.4934 134.356 21.5407L136.961 21.5794C137.533 21.588 138.038 21.2032 138.182 20.6487C138.644 18.8667 137.802 17.7705 135.893 17.7447C134.173 17.7189 132.789 18.6217 132.187 20.021L130.229 19.9931C131.216 17.2976 133.563 15.7328 136.499 15.7758C139.603 15.8209 140.938 17.6007 140.106 20.812L138.543 26.8306C138.354 27.5593 138.543 27.7506 139.093 27.7592L139.715 27.7678V27.7657ZM137.456 23.4516L133.683 23.3979C131.94 23.3721 130.773 24.0879 130.366 25.6527C130.016 27.0026 130.805 27.9355 132.428 27.9591C134.863 27.9935 136.686 26.4222 137.281 24.1287L137.456 23.4538V23.4516Z" fill="#037DF6"/>
<path d="M141.618 16.0078L143.695 16.0379L144.593 27.0777L151.074 16.1454L153.15 16.1755L143.366 32.1806C142.027 34.3817 141.349 35.2394 139.63 35.2157L137.289 35.1813L137.814 33.1565L139.557 33.1823C140.679 33.1995 140.954 32.8771 141.743 31.5895L142.775 29.9237L141.616 16.01L141.618 16.0078Z" fill="#037DF6"/>
</svg>
